<svg id="レイヤー_1" data-name="レイヤー 1" xmlns="http://www.w3.org/2000/svg" viewBox="0 0 1548 581"><defs><style>.cls-1{fill:#1c1f2b;}</style></defs><title>title2</title><path class="cls-1" d="M194.81,56.73q-12.19,18.6-36.6,40.6-28.8,26-35.4,37.6-1.2,2.59-4.6,9.6-6.19,12.41-12.6,24.6a126.7,126.7,0,0,0-9.8,25.8q-3.19,12.4-15,12.4-13,0-13-12,0-6.41,6.8-22.2,6.4-15.19,6.4-21.2a87.29,87.29,0,0,0-1.8-9.4q-3.6-15.6-8.8-26l-8.2-15.8q-4.4-9.2-16.4-30.2a12.51,12.51,0,0,1-1.6-9.2,28.54,28.54,0,0,1,6.4-12.1q5-5.9,10.8-5.9,4,0,7,4,14.6,19,38,63.2,9.2-10.4,33.6-32.4,22-19.8,32.4-33.6a14.24,14.24,0,0,1,11.8-6,16.35,16.35,0,0,1,9.3,2.9,8.88,8.88,0,0,1,4.3,7.7Q197.81,52.13,194.81,56.73Z"/><path class="cls-1" d="M310.81,209.13a16.49,16.49,0,0,1-10.4-3.4,10.83,10.83,0,0,1-4.4-9q0-2.8,3.2-13.8-47.2,22.2-69.2,22.2-24,0-28.2-24.4a59.39,59.39,0,0,1-1-11.6q0-13.4,3.8-33.6l10.2-52.2q4.6-21.79,7-30,3.41-10.39,12.2-10.4,12.8,0,12.8,10.6,0,4-5.8,27.8-3.8,15-5.4,22.6-5.6,25.8-5.6,40.4,0,9.79,2.4,14.6,4.8,8.81,16.2,8.8,17.2,0,59.8-20.2,3-13.2,5.6-26.2.4-2.2,12.4-69v-.8q1-5.81,6.8-9.9a20.29,20.29,0,0,1,11.8-4.1q9,0,8.8,9.4,0,.6-3.4,23-12.6,84.2-17.4,107.6-3.4,15.19-5.6,20.2Q321.82,209.13,310.81,209.13Z"/><path class="cls-1" d="M382.21,53.33q1.4-6.4,8.4-10.6a24.58,24.58,0,0,1,13.2-4q10.4,0,10,9.2-.19,6-5,37.4-2.6,15.4-5.4,36.4a494.89,494.89,0,0,0,56.4-42q5-4.4,18.4-16a16.41,16.41,0,0,1,10.8-4,16.18,16.18,0,0,1,9.4,2.9,7,7,0,0,1,3.2,7.7q-.6,3-4.2,6.2-.2.41-14.6,13.6-1.8,1.61-33.8,32.4a380.29,380.29,0,0,1-35.2,31,427,427,0,0,0,41.6,11.2,89.18,89.18,0,0,1,26.4,11q15,9,15,18.2,0,8-7.8,14a19.62,19.62,0,0,1-12.4,4.4q-5.21,0-11.8-4.4l-18-12.8a93.05,93.05,0,0,0-51.6-15h-1.4l-1.6,7.8q-3.6,19.8-21.8,19.8a22.09,22.09,0,0,1-11.8-3.2q-6.19-3.6-6.2-9.6,0-2.6,3-13.6l3.4-11q4.8-17.81,10.8-44.6,7.8-34.61,9.4-50.6Z"/><path class="cls-1" d="M661,70.13q-4.8,0-14-.8t-13.8-.8a153.4,153.4,0,0,0-21.2,1.4q-8.4,64.39-16,100.4a156.38,156.38,0,0,1,29-3q8.21,0,11.8,1.2a12.55,12.55,0,0,1,8.2,7.4,18,18,0,0,1,1.6,7.4q0,11.4-11,11.4-3.2,0-9.2-.4t-9-.4q-21.79,0-49,6.8-17.2,4-49.2,14.6a21.13,21.13,0,0,1-5.8,1.2q-4.2,0-4.2-5.2a21.37,21.37,0,0,1,.4-3.8q2-9,22.6-17.4,14.19-5,28.6-9.8,2.19-11,8-32.3t8.2-32.3q4-19.61,7.2-39.4-2.21.4-25,8-20.6,6.6-21.2,6.6-5,0-5-6.2a23.08,23.08,0,0,1,.8-5.4,17.15,17.15,0,0,1,8.6-12.2q1.61-1,18-8,30.4-13.4,49.8-19a120.23,120.23,0,0,1,35.2-5q10.2,0,15.4,1.6,12.2,3.8,12.2,18.2a16.66,16.66,0,0,1-.6,4.4Q670.42,70.13,661,70.13Z"/><path class="cls-1" d="M686.61,123.93q-5,0-10.6-4.2-6.6-4.2-5.6-9.2.8-2.81,11.8-24Q694,63.33,696,58.33q3.19-8,11-29,1.8-4.6,10.6-4.6a27.83,27.83,0,0,1,12.2,2.6q6.8,3.6,6.8,9.8a15,15,0,0,1-.2,2.4q-1.39,6.8-19.6,40.7T693,120.73A8,8,0,0,1,686.61,123.93Z"/><path class="cls-1" d="M795.61,207.33q-7,0-11.2-.4-12.79-1.2-27.6-7.6-16.6-7.2-16.6-15.8,0-6.79,7.6-13.6,6.41-5,12.6-5a23.13,23.13,0,0,1,8.8,2q26.6,10.4,46,10.4a115.56,115.56,0,0,0,32.6-5q25.2-7.61,25.2-20.8,0-12.4-20.6-21.4a126.81,126.81,0,0,0-30.6-8.8q-.6,0-44.4-4.8-8.8-1-8.8-8.2,0-14,20.2-35.6a162.32,162.32,0,0,1,29.8-25.6q19.8-13,30-13a89.73,89.73,0,0,1,18.6,2.4q13.8,3.19,17.6,4,9.6,1.8,13,10.2,2.81,6.6,2,10.6a14.7,14.7,0,0,1-5.1,7.7q-4.1,3.5-8.1,3.5-5.21,0-9-5.6-6.2-3.2-18.2-3.6l-10-.8c-4.13-.4-7.47-.6-10-.6q-7.8,0-19.4,9.7t-13.2,17.3q-1.2,6.19,10,6.6,38,1,57.6,7.8,33,11.4,33,32,0,16.39-16.8,33.2a125.12,125.12,0,0,1-43.3,28.7A137.36,137.36,0,0,1,795.61,207.33Z"/><path class="cls-1" d="M61.21,528.13q-.41,2.8-1.6,8.4-3.8,18.19-19.6,18.2a16.31,16.31,0,0,1-9.6-2.8,9.34,9.34,0,0,1-5-8.4q0-3.19,3.2-13.8l3.2-11q13.4-52.39,19.4-95a7.46,7.46,0,0,1-2.4.4q-6.41,0-6.4-7a27,27,0,0,1,.6-5.2q2-9.4,7.4-11.2,10.8-4,33.2-6.6a326.29,326.29,0,0,1,33.6-2q21.2,0,36.4,5.8,21.6,8.2,21.6,26.2,0,21.4-30.2,50.3T61.21,528.13Zm5.8-33a170.47,170.47,0,0,0,43.2-23.2q30.6-22.2,30.4-41.6,0-16.6-30.4-16.6-13.2,0-31.4,3.6Z"/><path class="cls-1" d="M370.61,461.93q-9.19,44.4-67.2,78-34.61,20.21-60.4,20.2-31.2,0-48.2-25.4a66.92,66.92,0,0,1-11.8-38.4,81.23,81.23,0,0,1,2-17.6q8.4-39.19,43-65.4,33.8-25.4,74.8-25.4,35.6,0,54.6,18.8,15.19,15,15.2,37.8A82.21,82.21,0,0,1,370.61,461.93Zm-66-40q-22.39,0-40,6.2-46.2,16.39-52.8,48.2a30.67,30.67,0,0,0-.8,7q0,12,9.6,22.2a38,38,0,0,0,28.6,12.4,70,70,0,0,0,19.8-3q4-1.2,19.8-7.2a114.68,114.68,0,0,0,22-12q7-4.8,20.9-14.4t16.1-19.4a49.82,49.82,0,0,0,1.2-10.4Q349,421.94,304.61,421.93Z"/><path class="cls-1" d="M500.61,577.13q-9.6,0-44.6-41-14.2-16.39-29.8-16.4a26.43,26.43,0,0,0-3.2.2q-3.19,1.61-8.8,4.2-.6,2.8-1.8,8.8-4.4,20.21-20.2,20.2a21.55,21.55,0,0,1-9.8-2.2q-5.21-3-5.2-8a18.94,18.94,0,0,1,.2-2.6l.4-1,15.8-63q5.59-26.2,9.6-52.4h-1.6q-5.4,0-5.4-4.6a17.12,17.12,0,0,1,.2-2.2q2.59-12.19,16.6-15.8a263.81,263.81,0,0,1,68.2-9.4q20.4,0,34.6,5,21.2,7.2,21.2,23.8,0,21-31.4,48.8a297.46,297.46,0,0,1-44.6,32.4q12.8,6,27.6,20.4,7.2,7,26,25.6a14.13,14.13,0,0,1,4.2,10.4q0,7-5.5,12.9T500.61,577.13Zm-25.2-166.2q-17,0-44.6,6.2-3.19,24.19-10,72.4a177.31,177.31,0,0,0,52.2-25.2q30.4-21.79,30.4-37.4,0-8.6-10.4-12.8A44.19,44.19,0,0,0,475.41,410.93Z"/><path class="cls-1" d="M699.41,415.33q-6.79,0-20.2-2.2t-20.2-2.2a73.77,73.77,0,0,0-13.6,1.2q-10.8,78-19.2,117-3.19,15-5.4,19.8-5.4,10.61-16.4,10.6a17.23,17.23,0,0,1-11.2-3.9q-4.8-3.9-3.4-10.3v-.8q6.2-29,12.6-52.8,2.8-9.41,5.2-18.8,6.4-29.21,10.8-58.8-8.6,2.4-27,6.6a229.27,229.27,0,0,0-26.6,7.6,21.48,21.48,0,0,1-6.6,1.6q-4.8,0-5-6.2a20.75,20.75,0,0,1,.8-5.2q1.61-7.61,7-11.2,2.6-1.8,12.2-5.8,51.6-21.6,102.8-21.6,14.81,0,19.6,1a20.28,20.28,0,0,1,13.1,8.3q4.5,6.5,2.5,15.1Q708.81,415.33,699.41,415.33Z"/><path class="cls-1" d="M836,408.33a28.73,28.73,0,0,1-4.5-.5,28.73,28.73,0,0,0-4.5-.5l-22.8-.2q-21.81-.19-50.8,7.6-4.8,32.59-8.2,54.2,29.19-1,45.6-11,4.4-2.6,6-2.6,5,0,7.4,6a17.62,17.62,0,0,1,.8,10.4q-1.6,7.39-8,10-18.19,7.2-56,12.6-2.21,16.2-4.4,26.8-3.79,20-7,25.6-5.21,8.4-16.2,8.4a18.27,18.27,0,0,1-9.8-2.6q-5-2.81-5-8a18.94,18.94,0,0,1,.2-2.6l.4-1.2,16.2-63.6q5.6-25.61,10-54.2h-1q-2.6,0-2.6-4.4a38.42,38.42,0,0,1,.8-6.8q1.6-7.8,5.3-11.6t11.3-5.2a52,52,0,0,1,5.8-1.4,341.35,341.35,0,0,1,89.6-12.2q11.6,0,11.6,12.2a17.72,17.72,0,0,1-4,11.4A7.29,7.29,0,0,1,836,408.33Z"/><path class="cls-1" d="M1033.21,461.93q-9.2,44.4-67.2,78-34.6,20.21-60.4,20.2-31.2,0-48.2-25.4a66.92,66.92,0,0,1-11.8-38.4,81.23,81.23,0,0,1,2-17.6q8.4-39.19,43-65.4,33.79-25.4,74.8-25.4,35.6,0,54.6,18.8,15.2,15,15.2,37.8A82.21,82.21,0,0,1,1033.21,461.93Zm-66-40q-22.4,0-40,6.2-46.2,16.39-52.8,48.2a30.12,30.12,0,0,0-.8,7q0,12,9.6,22.2a38,38,0,0,0,28.6,12.4,70,70,0,0,0,19.8-3q4-1.2,19.8-7.2a114.68,114.68,0,0,0,22-12q7-4.8,20.9-14.4t16.1-19.4a49.82,49.82,0,0,0,1.2-10.4Q1011.61,421.94,967.21,421.93Z"/><path class="cls-1" d="M1165.61,538.73q-2,.81-7.4,1-14,.4-52.4,7.8-27.4,5.21-51,8.8a24.65,24.65,0,0,1-13.8,3.8q-16.8,0-16.8-8.4a10.75,10.75,0,0,1,.6-3.4l.6-1.8a491.39,491.39,0,0,0,14.2-52.8q2.6-13,5.2-25.8,7-33.6,10.2-53.6.4-3.4,2.1-14.4t2.3-13.2a20.34,20.34,0,0,1,7.5-11.1,19.27,19.27,0,0,1,11.7-4.1q8.4,0,8.2,9.6-.19,15.8-8.6,74l-9.6,65.8q31.2-2.8,93.4-7.2,8.6,3.6,8.6,13Q1170.61,536.53,1165.61,538.73Z"/><path class="cls-1" d="M1327,420.13q-4.8,0-14-.8t-13.8-.8a153.51,153.51,0,0,0-21.2,1.4q-8.4,64.4-16,100.4a156.38,156.38,0,0,1,29-3q8.2,0,11.8,1.2a12.53,12.53,0,0,1,8.2,7.4,18,18,0,0,1,1.6,7.4q0,11.4-11,11.4-3.19,0-9.2-.4t-9-.4q-21.8,0-49,6.8-17.2,4-49.2,14.6a21.13,21.13,0,0,1-5.8,1.2q-4.2,0-4.2-5.2a21.37,21.37,0,0,1,.4-3.8q2-9,22.6-17.4,14.21-5,28.6-9.8,2.21-11,8-32.3t8.2-32.3q4-19.61,7.2-39.4-2.21.41-25,8-20.6,6.6-21.2,6.6-5,0-5-6.2a23.08,23.08,0,0,1,.8-5.4,17.15,17.15,0,0,1,8.6-12.2q1.61-1,18-8,30.4-13.39,49.8-19a120.23,120.23,0,0,1,35.2-5q10.2,0,15.4,1.6,12.2,3.79,12.2,18.2a16.66,16.66,0,0,1-.6,4.4Q1336.4,420.13,1327,420.13Z"/><path class="cls-1" d="M1526.6,461.93q-9.19,44.4-67.2,78-34.61,20.21-60.4,20.2-31.2,0-48.2-25.4a66.92,66.92,0,0,1-11.8-38.4,81.23,81.23,0,0,1,2-17.6q8.4-39.19,43-65.4,33.8-25.4,74.8-25.4,35.6,0,54.6,18.8,15.19,15,15.2,37.8A82.21,82.21,0,0,1,1526.6,461.93Zm-66-40q-22.39,0-40,6.2-46.2,16.39-52.8,48.2a30.12,30.12,0,0,0-.8,7q0,12,9.6,22.2a38,38,0,0,0,28.6,12.4,70,70,0,0,0,19.8-3q4-1.2,19.8-7.2a114.68,114.68,0,0,0,22-12q7-4.8,20.9-14.4t16.1-19.4a49.82,49.82,0,0,0,1.2-10.4Q1505,421.94,1460.6,421.93Z"/></svg>