<?xml version="1.0" encoding="utf-8"?>
<!-- Generator: Adobe Illustrator 24.0.2, SVG Export Plug-In . SVG Version: 6.00 Build 0)  -->
<svg version="1.1" id="レイヤー_1" xmlns="http://www.w3.org/2000/svg" xmlns:xlink="http://www.w3.org/1999/xlink" x="0px"
	 y="0px" viewBox="0 0 1548 581" style="enable-background:new 0 0 1548 581;" xml:space="preserve">
<style type="text/css">
	.st0{fill:#1C1F2B;}
</style>
<g>
	<path class="st0" d="M194.81,56.73c-8.13,12.4-20.33,25.93-36.6,40.6c-19.2,17.33-31,29.87-35.4,37.6c-0.8,1.73-2.33,4.93-4.6,9.6
		c-4.13,8.27-8.33,16.47-12.6,24.6c-4.67,9.47-7.93,18.07-9.8,25.8c-2.13,8.27-7.13,12.4-15,12.4c-8.67,0-13-4-13-12
		c0-4.27,2.27-11.67,6.8-22.2c4.27-10.13,6.4-17.2,6.4-21.2c0-0.8-0.6-3.93-1.8-9.4c-2.4-10.4-5.33-19.07-8.8-26
		c-1.87-3.6-4.6-8.87-8.2-15.8c-2.93-6.13-8.4-16.2-16.4-30.2c-1.73-2.93-2.27-6-1.6-9.2c0.93-4.13,3.07-8.17,6.4-12.1
		c3.33-3.93,6.93-5.9,10.8-5.9c2.67,0,5,1.33,7,4c9.73,12.67,22.4,33.73,38,63.2c6.13-6.93,17.33-17.73,33.6-32.4
		c14.67-13.2,25.47-24.4,32.4-33.6c3.07-4,7-6,11.8-6c3.33,0,6.43,0.97,9.3,2.9c2.87,1.93,4.3,4.5,4.3,7.7
		C197.81,51.13,196.81,53.66,194.81,56.73z"/>
	<path class="st0" d="M310.81,209.13c-4,0-7.47-1.13-10.4-3.4c-2.93-2.27-4.4-5.27-4.4-9c0-1.87,1.07-6.47,3.2-13.8
		c-31.47,14.8-54.53,22.2-69.2,22.2c-16,0-25.4-8.13-28.2-24.4c-0.67-3.33-1-7.2-1-11.6c0-8.93,1.27-20.13,3.8-33.6l10.2-52.2
		c3.07-14.53,5.4-24.53,7-30c2.27-6.93,6.33-10.4,12.2-10.4c8.53,0,12.8,3.53,12.8,10.6c0,2.67-1.93,11.93-5.8,27.8
		c-2.53,10-4.33,17.53-5.4,22.6c-3.73,17.2-5.6,30.67-5.6,40.4c0,6.53,0.8,11.4,2.4,14.6c3.2,5.87,8.6,8.8,16.2,8.8
		c11.47,0,31.4-6.73,59.8-20.2c2-8.8,3.87-17.53,5.6-26.2c0.27-1.47,4.4-24.47,12.4-69v-0.8c0.67-3.87,2.93-7.17,6.8-9.9
		c3.87-2.73,7.8-4.1,11.8-4.1c6,0,8.93,3.13,8.8,9.4c0,0.4-1.13,8.07-3.4,23c-8.4,56.13-14.2,92-17.4,107.6
		c-2.27,10.13-4.13,16.87-5.6,20.2C323.68,205.33,318.14,209.13,310.81,209.13z"/>
	<path class="st0" d="M382.21,53.33c0.93-4.27,3.73-7.8,8.4-10.6c4.27-2.67,8.67-4,13.2-4c6.93,0,10.27,3.07,10,9.2
		c-0.13,4-1.8,16.47-5,37.4c-1.73,10.27-3.53,22.4-5.4,36.4c18-11.33,36.8-25.33,56.4-42c3.33-2.93,9.47-8.27,18.4-16
		c3.2-2.67,6.8-4,10.8-4c3.47,0,6.6,0.97,9.4,2.9c2.8,1.93,3.87,4.5,3.2,7.7c-0.4,2-1.8,4.07-4.2,6.2c-0.13,0.27-5,4.8-14.6,13.6
		c-1.2,1.07-12.47,11.87-33.8,32.4c-12.93,12.67-24.67,23-35.2,31c13.07,4.27,26.93,8,41.6,11.2c8.8,2,17.6,5.67,26.4,11
		c10,6,15,12.07,15,18.2c0,5.33-2.6,10-7.8,14c-3.73,2.93-7.87,4.4-12.4,4.4c-3.47,0-7.4-1.47-11.8-4.4l-18-12.8
		c-15.47-10-32.67-15-51.6-15h-1.4l-1.6,7.8c-2.4,13.2-9.67,19.8-21.8,19.8c-4.4,0-8.33-1.07-11.8-3.2c-4.13-2.4-6.2-5.6-6.2-9.6
		c0-1.73,1-6.27,3-13.6l3.4-11c3.2-11.87,6.8-26.73,10.8-44.6c5.2-23.07,8.33-39.93,9.4-50.6L382.21,53.33z"/>
	<path class="st0" d="M661.01,70.13c-3.2,0-7.87-0.27-14-0.8c-6.13-0.53-10.73-0.8-13.8-0.8c-7.47,0-14.54,0.47-21.2,1.4
		c-5.6,42.93-10.93,76.4-16,100.4c10.53-2,20.2-3,29-3c5.47,0,9.4,0.4,11.8,1.2c3.73,1.07,6.46,3.53,8.2,7.4
		c1.07,2.4,1.6,4.87,1.6,7.4c0,7.6-3.67,11.4-11,11.4c-2.13,0-5.2-0.13-9.2-0.4c-4-0.27-7-0.4-9-0.4c-14.53,0-30.87,2.27-49,6.8
		c-11.47,2.67-27.87,7.53-49.2,14.6c-2.53,0.8-4.47,1.2-5.8,1.2c-2.8,0-4.2-1.73-4.2-5.2c0-1.07,0.13-2.33,0.4-3.8
		c1.33-6,8.87-11.8,22.6-17.4c9.46-3.33,19-6.6,28.6-9.8c1.46-7.33,4.13-18.1,8-32.3c3.87-14.2,6.6-24.97,8.2-32.3
		c2.67-13.07,5.07-26.2,7.2-39.4c-1.47,0.27-9.8,2.93-25,8c-13.73,4.4-20.8,6.6-21.2,6.6c-3.33,0-5-2.07-5-6.2
		c0-1.47,0.27-3.27,0.8-5.4c1.07-5.47,3.93-9.53,8.6-12.2c1.07-0.67,7.07-3.33,18-8c20.27-8.93,36.87-15.27,49.8-19
		c10.93-3.33,22.67-5,35.2-5c6.8,0,11.93,0.53,15.4,1.6c8.13,2.53,12.2,8.6,12.2,18.2c0,1.47-0.2,2.93-0.6,4.4
		C671.08,66.53,667.28,70.13,661.01,70.13z"/>
	<path class="st0" d="M686.61,123.93c-3.33,0-6.87-1.4-10.6-4.2c-4.4-2.8-6.27-5.87-5.6-9.2c0.53-1.87,4.47-9.87,11.8-24
		c7.87-15.47,12.47-24.87,13.8-28.2c2.13-5.33,5.8-15,11-29c1.2-3.07,4.73-4.6,10.6-4.6c4.53,0,8.6,0.87,12.2,2.6
		c4.53,2.4,6.8,5.67,6.8,9.8c0,0.8-0.07,1.6-0.2,2.4c-0.93,4.53-7.47,18.1-19.6,40.7c-12.13,22.6-20.07,36.1-23.8,40.5
		C691.28,122.86,689.14,123.93,686.61,123.93z"/>
	<path class="st0" d="M795.61,207.33c-4.67,0-8.4-0.13-11.2-0.4c-8.53-0.8-17.73-3.33-27.6-7.6c-11.07-4.8-16.6-10.07-16.6-15.8
		c0-4.53,2.54-9.07,7.6-13.6c4.27-3.33,8.47-5,12.6-5c2.67,0,5.6,0.67,8.8,2c17.73,6.93,33.07,10.4,46,10.4
		c10.4,0,21.27-1.67,32.6-5c16.8-5.07,25.2-12,25.2-20.8c0-8.27-6.87-15.4-20.6-21.4c-9.07-4-19.27-6.93-30.6-8.8
		c-0.4,0-15.2-1.6-44.4-4.8c-5.87-0.67-8.8-3.4-8.8-8.2c0-9.33,6.73-21.2,20.2-35.6c9.2-10,19.13-18.53,29.8-25.6
		c13.2-8.67,23.2-13,30-13c5.07,0,11.27,0.8,18.6,2.4c9.2,2.13,15.07,3.47,17.6,4c6.4,1.2,10.73,4.6,13,10.2
		c1.87,4.4,2.53,7.93,2,10.6c-0.67,2.8-2.37,5.37-5.1,7.7c-2.73,2.33-5.43,3.5-8.1,3.5c-3.47,0-6.47-1.87-9-5.6
		c-4.13-2.13-10.2-3.33-18.2-3.6c-1.73-0.13-5.07-0.4-10-0.8c-4.13-0.4-7.47-0.6-10-0.6c-5.2,0-11.67,3.23-19.4,9.7
		c-7.73,6.47-12.13,12.23-13.2,17.3c-0.8,4.13,2.53,6.33,10,6.6c25.33,0.67,44.53,3.27,57.6,7.8c22,7.6,33,18.27,33,32
		c0,10.93-5.6,22-16.8,33.2c-12.13,12.4-26.57,21.97-43.3,28.7C830.58,203.96,813.34,207.33,795.61,207.33z"/>
	<path class="st0" d="M61.21,528.13c-0.27,1.87-0.8,4.67-1.6,8.4c-2.53,12.13-9.07,18.2-19.6,18.2c-3.73,0-6.93-0.93-9.6-2.8
		c-3.33-2-5-4.8-5-8.4c0-2.13,1.07-6.73,3.2-13.8l3.2-11c8.93-34.93,15.4-66.6,19.4-95c-0.8,0.27-1.6,0.4-2.4,0.4
		c-4.27,0-6.4-2.33-6.4-7c0-1.47,0.2-3.2,0.6-5.2c1.33-6.27,3.8-10,7.4-11.2c7.2-2.67,18.27-4.87,33.2-6.6
		c12.67-1.33,23.87-2,33.6-2c14.13,0,26.27,1.93,36.4,5.8c14.4,5.47,21.6,14.2,21.6,26.2c0,14.27-10.07,31.03-30.2,50.3
		C124.88,493.7,96.95,511.6,61.21,528.13z M67.01,495.13c14.67-5.2,29.07-12.93,43.2-23.2c20.4-14.8,30.53-28.67,30.4-41.6
		c0-11.07-10.13-16.6-30.4-16.6c-8.8,0-19.27,1.2-31.4,3.6L67.01,495.13z"/>
	<path class="st0" d="M370.61,461.93c-6.13,29.6-28.53,55.6-67.2,78c-23.07,13.47-43.2,20.2-60.4,20.2c-20.8,0-36.87-8.47-48.2-25.4
		c-7.87-11.6-11.8-24.4-11.8-38.4c0-5.73,0.67-11.6,2-17.6c5.6-26.13,19.93-47.93,43-65.4c22.53-16.93,47.47-25.4,74.8-25.4
		c23.73,0,41.93,6.27,54.6,18.8c10.13,10,15.2,22.6,15.2,37.8C372.61,450,371.94,455.8,370.61,461.93z M304.61,421.93
		c-14.93,0-28.27,2.07-40,6.2c-30.8,10.93-48.4,27-52.8,48.2c-0.53,2.27-0.8,4.6-0.8,7c0,8,3.2,15.4,9.6,22.2
		c7.87,8.27,17.4,12.4,28.6,12.4c6.4,0,13-1,19.8-3c2.67-0.8,9.27-3.2,19.8-7.2c6.8-2.67,14.13-6.67,22-12
		c4.67-3.2,11.63-8,20.9-14.4c9.27-6.4,14.63-12.87,16.1-19.4c0.8-3.73,1.2-7.2,1.2-10.4C349.01,431.8,334.21,421.93,304.61,421.93z
		"/>
	<path class="st0" d="M500.61,577.13c-6.4,0-21.27-13.67-44.6-41c-9.47-10.93-19.4-16.4-29.8-16.4c-1.07,0-2.13,0.07-3.2,0.2
		c-2.13,1.07-5.07,2.47-8.8,4.2c-0.4,1.87-1,4.8-1.8,8.8c-2.93,13.47-9.67,20.2-20.2,20.2c-3.6,0-6.87-0.73-9.8-2.2
		c-3.47-2-5.2-4.67-5.2-8c0-0.8,0.07-1.67,0.2-2.6l0.4-1l15.8-63c3.73-17.47,6.93-34.93,9.6-52.4h-1.6c-3.6,0-5.4-1.53-5.4-4.6
		c0-0.53,0.07-1.27,0.2-2.2c1.73-8.13,7.27-13.4,16.6-15.8c23.47-6.27,46.2-9.4,68.2-9.4c13.6,0,25.13,1.67,34.6,5
		c14.13,4.8,21.2,12.73,21.2,23.8c0,14-10.47,30.27-31.4,48.8c-13.07,11.6-27.93,22.4-44.6,32.4c8.53,4,17.73,10.8,27.6,20.4
		c4.8,4.67,13.47,13.2,26,25.6c2.8,2.8,4.2,6.27,4.2,10.4c0,4.67-1.83,8.97-5.5,12.9C509.64,575.16,505.41,577.13,500.61,577.13z
		 M475.41,410.93c-11.33,0-26.2,2.07-44.6,6.2c-2.13,16.13-5.47,40.27-10,72.4c19.47-5.87,36.87-14.27,52.2-25.2
		c20.27-14.53,30.4-27,30.4-37.4c0-5.73-3.47-10-10.4-12.8C488.08,412,482.21,410.93,475.41,410.93z"/>
	<path class="st0" d="M699.41,415.33c-4.53,0-11.27-0.73-20.2-2.2c-8.93-1.47-15.67-2.2-20.2-2.2c-4.8,0-9.33,0.4-13.6,1.2
		c-7.2,52-13.6,91-19.2,117c-2.13,10-3.93,16.6-5.4,19.8c-3.6,7.07-9.07,10.6-16.4,10.6c-4.27,0-8-1.3-11.2-3.9
		c-3.2-2.6-4.33-6.03-3.4-10.3v-0.8c4.13-19.33,8.33-36.93,12.6-52.8c1.87-6.27,3.6-12.53,5.2-18.8c4.27-19.47,7.87-39.07,10.8-58.8
		c-5.73,1.6-14.73,3.8-27,6.6c-11.33,2.67-20.2,5.2-26.6,7.6c-2.93,1.07-5.13,1.6-6.6,1.6c-3.2,0-4.87-2.07-5-6.2
		c0-1.47,0.27-3.2,0.8-5.2c1.07-5.07,3.4-8.8,7-11.2c1.73-1.2,5.8-3.13,12.2-5.8c34.4-14.4,68.67-21.6,102.8-21.6
		c9.87,0,16.4,0.33,19.6,1c5.73,1.2,10.1,3.97,13.1,8.3c3,4.33,3.83,9.37,2.5,15.1C709.61,411.66,705.67,415.33,699.41,415.33z"/>
	<path class="st0" d="M836.01,408.33c-1.07,0-2.57-0.17-4.5-0.5c-1.93-0.33-3.43-0.5-4.5-0.5l-22.8-0.2
		c-14.54-0.13-31.47,2.4-50.8,7.6c-3.2,21.73-5.93,39.8-8.2,54.2c19.46-0.67,34.67-4.33,45.6-11c2.93-1.73,4.93-2.6,6-2.6
		c3.33,0,5.8,2,7.4,6c1.33,3.6,1.6,7.07,0.8,10.4c-1.07,4.93-3.73,8.27-8,10c-12.13,4.8-30.8,9-56,12.6
		c-1.47,10.8-2.93,19.73-4.4,26.8c-2.53,13.33-4.87,21.87-7,25.6c-3.47,5.6-8.87,8.4-16.2,8.4c-3.73,0-7-0.87-9.8-2.6
		c-3.33-1.87-5-4.53-5-8c0-0.8,0.07-1.67,0.2-2.6l0.4-1.2l16.2-63.6c3.73-17.07,7.07-35.13,10-54.2h-1c-1.73,0-2.6-1.47-2.6-4.4
		c0-1.73,0.27-4,0.8-6.8c1.07-5.2,2.83-9.07,5.3-11.6c2.47-2.53,6.23-4.27,11.3-5.2c0.67-0.27,2.6-0.73,5.8-1.4
		c30-8.13,59.87-12.2,89.6-12.2c7.73,0,11.6,4.07,11.6,12.2c0,4.27-1.33,8.07-4,11.4C840.61,407.2,838.54,408.33,836.01,408.33z"/>
	<path class="st0" d="M1033.21,461.93c-6.13,29.6-28.53,55.6-67.2,78c-23.07,13.47-43.2,20.2-60.4,20.2
		c-20.8,0-36.87-8.47-48.2-25.4c-7.87-11.6-11.8-24.4-11.8-38.4c0-5.73,0.67-11.6,2-17.6c5.6-26.13,19.93-47.93,43-65.4
		c22.53-16.93,47.47-25.4,74.8-25.4c23.73,0,41.93,6.27,54.6,18.8c10.13,10,15.2,22.6,15.2,37.8
		C1035.21,450,1034.54,455.8,1033.21,461.93z M967.21,421.93c-14.93,0-28.27,2.07-40,6.2c-30.8,10.93-48.4,27-52.8,48.2
		c-0.54,2.27-0.8,4.6-0.8,7c0,8,3.2,15.4,9.6,22.2c7.87,8.27,17.4,12.4,28.6,12.4c6.4,0,13-1,19.8-3c2.67-0.8,9.27-3.2,19.8-7.2
		c6.8-2.67,14.13-6.67,22-12c4.67-3.2,11.63-8,20.9-14.4c9.27-6.4,14.63-12.87,16.1-19.4c0.8-3.73,1.2-7.2,1.2-10.4
		C1011.61,431.8,996.81,421.93,967.21,421.93z"/>
	<path class="st0" d="M1165.61,538.73c-1.33,0.54-3.8,0.87-7.4,1c-9.33,0.27-26.8,2.87-52.4,7.8c-18.27,3.47-35.27,6.4-51,8.8
		c-3.87,2.53-8.47,3.8-13.8,3.8c-11.2,0-16.8-2.8-16.8-8.4c0-1.07,0.2-2.2,0.6-3.4l0.6-1.8c6-18.4,10.73-36,14.2-52.8
		c1.73-8.67,3.47-17.27,5.2-25.8c4.67-22.4,8.07-40.27,10.2-53.6c0.27-2.27,0.97-7.07,2.1-14.4c1.13-7.33,1.9-11.73,2.3-13.2
		c1.33-4.67,3.83-8.37,7.5-11.1c3.67-2.73,7.57-4.1,11.7-4.1c5.6,0,8.33,3.2,8.2,9.6c-0.13,10.53-3,35.2-8.6,74l-9.6,65.8
		c20.8-1.87,51.93-4.27,93.4-7.2c5.73,2.4,8.6,6.73,8.6,13C1170.61,533.26,1168.94,537.26,1165.61,538.73z"/>
	<path class="st0" d="M1327,420.13c-3.2,0-7.87-0.27-14-0.8c-6.13-0.53-10.73-0.8-13.8-0.8c-7.47,0-14.53,0.47-21.2,1.4
		c-5.6,42.93-10.93,76.4-16,100.4c10.53-2,20.2-3,29-3c5.47,0,9.4,0.4,11.8,1.2c3.73,1.07,6.47,3.53,8.2,7.4
		c1.07,2.4,1.6,4.87,1.6,7.4c0,7.6-3.67,11.4-11,11.4c-2.13,0-5.2-0.13-9.2-0.4c-4-0.27-7-0.4-9-0.4c-14.53,0-30.87,2.27-49,6.8
		c-11.47,2.67-27.87,7.53-49.2,14.6c-2.53,0.8-4.47,1.2-5.8,1.2c-2.8,0-4.2-1.73-4.2-5.2c0-1.07,0.13-2.33,0.4-3.8
		c1.33-6,8.87-11.8,22.6-17.4c9.47-3.33,19-6.6,28.6-9.8c1.47-7.33,4.13-18.1,8-32.3c3.87-14.2,6.6-24.97,8.2-32.3
		c2.67-13.07,5.07-26.2,7.2-39.4c-1.47,0.27-9.8,2.93-25,8c-13.73,4.4-20.8,6.6-21.2,6.6c-3.33,0-5-2.07-5-6.2
		c0-1.47,0.27-3.27,0.8-5.4c1.07-5.47,3.93-9.53,8.6-12.2c1.07-0.67,7.07-3.33,18-8c20.27-8.93,36.87-15.27,49.8-19
		c10.93-3.33,22.67-5,35.2-5c6.8,0,11.93,0.53,15.4,1.6c8.13,2.53,12.2,8.6,12.2,18.2c0,1.47-0.2,2.93-0.6,4.4
		C1337.07,416.53,1333.27,420.13,1327,420.13z"/>
	<path class="st0" d="M1526.6,461.93c-6.13,29.6-28.53,55.6-67.2,78c-23.07,13.47-43.2,20.2-60.4,20.2c-20.8,0-36.87-8.47-48.2-25.4
		c-7.87-11.6-11.8-24.4-11.8-38.4c0-5.73,0.67-11.6,2-17.6c5.6-26.13,19.93-47.93,43-65.4c22.53-16.93,47.47-25.4,74.8-25.4
		c23.73,0,41.93,6.27,54.6,18.8c10.13,10,15.2,22.6,15.2,37.8C1528.6,450,1527.93,455.8,1526.6,461.93z M1460.6,421.93
		c-14.93,0-28.27,2.07-40,6.2c-30.8,10.93-48.4,27-52.8,48.2c-0.54,2.27-0.8,4.6-0.8,7c0,8,3.2,15.4,9.6,22.2
		c7.87,8.27,17.4,12.4,28.6,12.4c6.4,0,13-1,19.8-3c2.67-0.8,9.27-3.2,19.8-7.2c6.8-2.67,14.13-6.67,22-12
		c4.67-3.2,11.63-8,20.9-14.4c9.27-6.4,14.63-12.87,16.1-19.4c0.8-3.73,1.2-7.2,1.2-10.4C1505,431.8,1490.2,421.93,1460.6,421.93z"
		/>
</g>
</svg>
